<svg xmlns="http://www.w3.org/2000/svg" xmlns:xlink="http://www.w3.org/1999/xlink" id="Layer_1" x="0px" y="0px" viewBox="0 0 187.8 138.1" style="enable-background:new 0 0 187.8 138.1;" xml:space="preserve"><style type="text/css">	.st0{fill:url(#SVGID_1_);}	.st1{fill:url(#SVGID_2_);}	.st2{fill:url(#SVGID_3_);}	.st3{fill:url(#SVGID_4_);}	.st4{fill:url(#SVGID_5_);}	.st5{fill:url(#SVGID_6_);}	.st6{fill:url(#SVGID_7_);}</style><g>	<linearGradient id="SVGID_1_" gradientUnits="userSpaceOnUse" x1="201.1257" y1="68.245" x2="-79.7932" y2="69.6021">		<stop offset="0" style="stop-color:#141F72"></stop>		<stop offset="1" style="stop-color:#2CB9F9"></stop>	</linearGradient>	<path class="st0" d="M119.6,39.1v20.2c5.2,0,9.4,4.2,9.4,9.4s-4.2,9.4-9.4,9.4v20.2c16.3,0,29.6-13.2,29.6-29.6  C149.1,52.3,135.9,39.1,119.6,39.1z"></path>	<linearGradient id="SVGID_2_" gradientUnits="userSpaceOnUse" x1="201.1277" y1="68.6631" x2="-79.7912" y2="70.0202">		<stop offset="0" style="stop-color:#141F72"></stop>		<stop offset="1" style="stop-color:#2CB9F9"></stop>	</linearGradient>	<path class="st1" d="M167.3,20.2C154.1,7.1,138.1,0.4,119.6,0v20.9c12.7,0.4,23.6,5.1,32.8,14.1c9.5,9.4,14.3,20.8,14.3,34.1  c0,13.3-4.8,24.6-14.3,34c-9.6,9.5-21.2,14.2-34.6,14.2H102V78.2H80.8v59.9h36.9c19.4,0,35.9-6.8,49.6-20.3  c13.7-13.5,20.5-29.8,20.5-48.8C187.8,50,181,33.8,167.3,20.2z"></path>	<linearGradient id="SVGID_3_" gradientUnits="userSpaceOnUse" x1="201.0332" y1="49.1171" x2="-79.8856" y2="50.4742">		<stop offset="0" style="stop-color:#141F72"></stop>		<stop offset="1" style="stop-color:#2CB9F9"></stop>	</linearGradient>	<rect x="80.8" y="39.1" class="st2" width="21.2" height="21.2"></rect>	<linearGradient id="SVGID_4_" gradientUnits="userSpaceOnUse" x1="200.8446" y1="10.0605" x2="-80.0743" y2="11.4176">		<stop offset="0" style="stop-color:#141F72"></stop>		<stop offset="1" style="stop-color:#2CB9F9"></stop>	</linearGradient>	<rect x="80.8" class="st3" width="21.2" height="21.2"></rect>	<linearGradient id="SVGID_5_" gradientUnits="userSpaceOnUse" x1="201.0323" y1="48.9218" x2="-79.8865" y2="50.2789">		<stop offset="0" style="stop-color:#141F72"></stop>		<stop offset="1" style="stop-color:#2CB9F9"></stop>	</linearGradient>	<rect x="40.4" y="39.1" class="st4" width="21.2" height="21.2"></rect>	<linearGradient id="SVGID_6_" gradientUnits="userSpaceOnUse" x1="200.8436" y1="9.8652" x2="-80.0752" y2="11.2223">		<stop offset="0" style="stop-color:#141F72"></stop>		<stop offset="1" style="stop-color:#2CB9F9"></stop>	</linearGradient>	<rect x="40.4" class="st5" width="21.2" height="21.2"></rect>	<linearGradient id="SVGID_7_" gradientUnits="userSpaceOnUse" x1="200.8427" y1="9.67" x2="-80.0762" y2="11.0271">		<stop offset="0" style="stop-color:#141F72"></stop>		<stop offset="1" style="stop-color:#2CB9F9"></stop>	</linearGradient>	<rect class="st6" width="21.2" height="21.2"></rect></g></svg>